# xmcd CD database file
#
# Track frame offsets:
#	150
#	25650
#	50775
#	69750
#	96037
#	133085
#	140622
#	173697
#	192337
#	238422
#	270300
#
# Disc length: 3874 seconds
#
# Revision: 1
# Processed by: cddbd v1.5.1PL0 Copyright (c) Steve Scherf et al.
# Submitted via: CDex 1.51
#
DISCID=990f200b
DTITLE=村松健 - フィールド・ソング
DYEAR=1989
DGENRE=New Age
TTITLE0=フローティング−睡蓮の開く朝−
TTITLE1=フィールド・ソング
TTITLE2=雪どけ水
TTITLE3=虹が消えないうちに
TTITLE4=遠い面影
TTITLE5=素直になれたら
TTITLE6=あの角を曲がれば
TTITLE7=パープル・ストリーム
TTITLE8=あかね色によりそって
TTITLE9=星が生まれる丘
TTITLE10=遠い面影−昨日と同じ今日−
EXTD=YEAR: 1989
EXTT0=
EXTT1=
EXTT2=
EXTT3=
EXTT4=
EXTT5=
EXTT6=
EXTT7=
EXTT8=
EXTT9=
EXTT10=
PLAYORDER=
